<mxfile host="65bd71144e">
    <diagram id="B2Imsyf_CLR86bu_pUIC" name="Page-1">
        <mxGraphModel dx="828" dy="449" grid="1" gridSize="10" guides="1" tooltips="1" connect="1" arrows="1" fold="1" page="1" pageScale="1" pageWidth="850" pageHeight="1100" math="0" shadow="0">
            <root>
                <mxCell id="0"/>
                <mxCell id="1" parent="0"/>
                <mxCell id="201" value="Key" style="swimlane;" parent="1" vertex="1">
                    <mxGeometry x="690" y="40" width="110" height="120" as="geometry"/>
                </mxCell>
                <mxCell id="202" value="Reservoir" style="shape=card;whiteSpace=wrap;html=1;size=20;" parent="201" vertex="1">
                    <mxGeometry x="10" y="38.75" width="80" height="60" as="geometry"/>
                </mxCell>
                <mxCell id="253" style="edgeStyle=orthogonalEdgeStyle;rounded=0;orthogonalLoop=1;jettySize=auto;html=1;entryX=0;entryY=0.25;entryDx=0;entryDy=0;" parent="1" source="247" target="250" edge="1">
                    <mxGeometry relative="1" as="geometry"/>
                </mxCell>
                <mxCell id="247" value="Account" style="ellipse;whiteSpace=wrap;html=1;aspect=fixed;" parent="1" vertex="1">
                    <mxGeometry x="340" y="40" width="80" height="80" as="geometry"/>
                </mxCell>
                <mxCell id="250" value="Account&lt;br&gt;&lt;br&gt;Balance RVN&lt;br&gt;balance USD&lt;br&gt;&lt;br&gt;Assets ...&amp;nbsp;&lt;br&gt;&lt;br&gt;&lt;br&gt;&lt;br&gt;&lt;br&gt;" style="rounded=0;whiteSpace=wrap;html=1;" parent="1" vertex="1">
                    <mxGeometry x="490" y="40" width="120" height="180" as="geometry"/>
                </mxCell>
                <mxCell id="252" style="edgeStyle=orthogonalEdgeStyle;rounded=0;orthogonalLoop=1;jettySize=auto;html=1;entryX=0;entryY=0.5;entryDx=0;entryDy=0;" parent="1" source="251" target="250" edge="1">
                    <mxGeometry relative="1" as="geometry"/>
                </mxCell>
                <mxCell id="251" value="Balances" style="shape=card;whiteSpace=wrap;html=1;size=20;" parent="1" vertex="1">
                    <mxGeometry x="360" y="150" width="80" height="60" as="geometry"/>
                </mxCell>
                <mxCell id="258" style="edgeStyle=orthogonalEdgeStyle;rounded=0;orthogonalLoop=1;jettySize=auto;html=1;" parent="1" source="256" edge="1">
                    <mxGeometry relative="1" as="geometry">
                        <mxPoint x="385" y="380" as="targetPoint"/>
                    </mxGeometry>
                </mxCell>
                <mxCell id="256" value="rates" style="shape=card;whiteSpace=wrap;html=1;size=20;" parent="1" vertex="1">
                    <mxGeometry x="345" y="270" width="80" height="60" as="geometry"/>
                </mxCell>
                <mxCell id="259" value="Rate&lt;br&gt;&lt;br&gt;&lt;br&gt;&lt;br&gt;&lt;br&gt;&lt;br&gt;&lt;br&gt;" style="rounded=0;whiteSpace=wrap;html=1;" parent="1" vertex="1">
                    <mxGeometry x="120" y="390" width="530" height="140" as="geometry"/>
                </mxCell>
                <mxCell id="260" value="RVN&lt;br&gt;Security" style="ellipse;whiteSpace=wrap;html=1;aspect=fixed;" parent="1" vertex="1">
                    <mxGeometry x="460" y="420" width="80" height="80" as="geometry"/>
                </mxCell>
                <mxCell id="261" value="double" style="edgeStyle=orthogonalEdgeStyle;rounded=0;orthogonalLoop=1;jettySize=auto;html=1;entryX=0;entryY=0.5;entryDx=0;entryDy=0;" parent="1" source="262" target="260" edge="1">
                    <mxGeometry relative="1" as="geometry"/>
                </mxCell>
                <mxCell id="262" value="TXS&lt;br&gt;Security" style="ellipse;whiteSpace=wrap;html=1;aspect=fixed;" parent="1" vertex="1">
                    <mxGeometry x="220" y="420" width="80" height="80" as="geometry"/>
                </mxCell>
            </root>
        </mxGraphModel>
    </diagram>
</mxfile>